# Blender v2.78 (sub 0) OBJ File: ''
# www.blender.org
mtllib snowTree.mtl
o SapinHiver_Cylinder.008
v 0.895555 1.047665 -0.885452
v 0.233535 1.138012 -0.536983
v -0.114934 1.047665 0.125037
v 0.233535 1.138012 0.787057
v 0.895554 1.047665 1.135526
v 1.557574 1.138012 0.787057
v 1.906044 1.047665 0.125037
v 1.557574 1.138012 -0.536983
v 0.327017 1.754884 -0.443500
v 0.027754 1.664538 0.125037
v 0.327017 1.754884 0.693575
v 0.895554 1.664538 0.992838
v 1.464092 1.754884 0.693575
v 1.763355 1.664538 0.125037
v 1.464092 1.754884 -0.443500
v 0.895555 1.664538 -0.742763
v 0.429690 2.371757 -0.340827
v 0.184472 2.281411 0.125037
v 0.429690 2.371757 0.590901
v 0.895554 2.281411 0.836120
v 1.361419 2.371757 0.590901
v 1.606637 2.281411 0.125037
v 1.361419 2.371757 -0.340827
v 0.895555 2.281411 -0.586045
v 0.531294 2.988630 -0.239223
v 0.339557 2.898283 0.125037
v 0.531294 2.988630 0.489298
v 0.895554 2.898283 0.681035
v 1.259815 2.988630 0.489298
v 1.451552 2.898283 0.125037
v 1.259815 2.988630 -0.239223
v 0.895555 2.898283 -0.430960
v 0.627967 3.605502 -0.142550
v 0.487117 3.515156 0.125037
v 0.627967 3.605502 0.392624
v 0.895555 3.515156 0.533475
v 1.163142 3.605502 0.392624
v 1.303993 3.515156 0.125037
v 1.163142 3.605502 -0.142550
v 0.895555 3.515156 -0.283401
v 0.731953 4.222375 -0.038564
v 0.645838 4.132029 0.125037
v 0.731953 4.222375 0.288638
v 0.895555 4.132029 0.374754
v 1.059156 4.222375 0.288638
v 1.145271 4.132029 0.125037
v 1.059156 4.222375 -0.038564
v 0.895555 4.132029 -0.124679
v 0.493818 1.784052 -0.276699
v 0.565330 2.400924 -0.205187
v 0.636843 3.017797 -0.133675
v 0.708355 3.634670 -0.062162
v 0.779867 4.251542 0.009350
v 0.282355 1.693705 0.125037
v 0.391509 2.310578 0.125037
v 0.500664 2.927450 0.125037
v 0.609818 3.544323 0.125037
v 0.718973 4.161196 0.125037
v 0.493818 1.784052 0.526774
v 0.565330 2.400924 0.455261
v 0.636843 3.017797 0.383749
v 0.708355 3.634670 0.312237
v 0.779867 4.251542 0.240724
v 0.895554 1.693705 0.738237
v 0.895554 2.310578 0.629083
v 0.895554 2.927450 0.519928
v 0.895555 3.544323 0.410774
v 0.895555 4.161196 0.301619
v 1.297291 1.784052 0.526774
v 1.225779 2.400924 0.455262
v 1.154266 3.017797 0.383749
v 1.082754 3.634670 0.312237
v 1.011242 4.251542 0.240724
v 1.508754 1.693705 0.125037
v 1.399600 2.310578 0.125037
v 1.290445 2.927450 0.125037
v 1.181291 3.544323 0.125037
v 1.072136 4.161196 0.125037
v 1.297291 1.784052 -0.276699
v 1.225779 2.400924 -0.205187
v 1.154266 3.017797 -0.133675
v 1.082754 3.634670 -0.062162
v 1.011242 4.251542 0.009350
v 0.895555 4.161196 -0.051545
v 0.895555 3.544323 -0.160699
v 0.895555 2.927450 -0.269854
v 0.895555 2.310578 -0.379008
v 0.895555 1.693705 -0.488163
v 0.888518 4.868415 0.118001
v 0.422305 1.167179 -0.348212
v 0.885603 4.868415 0.125037
v 0.173200 1.076833 0.125037
v 0.888518 4.868415 0.132074
v 0.422305 1.167179 0.598286
v 0.895555 4.868415 0.134988
v 0.895554 1.076833 0.847392
v 0.902591 4.868415 0.132074
v 1.368804 1.167179 0.598286
v 0.905506 4.868415 0.125037
v 1.617909 1.076833 0.125037
v 0.902591 4.868415 0.118001
v 1.368804 1.167179 -0.348212
v 0.895555 4.868415 0.115086
v 0.895555 1.076833 -0.597317
v 0.895555 -0.151560 -0.098059
v 0.895555 1.111319 -0.098059
v 1.053307 -0.151560 -0.032715
v 1.053307 1.111319 -0.032715
v 1.118650 -0.151560 0.125037
v 1.118650 1.111319 0.125037
v 1.053307 -0.151560 0.282790
v 1.053307 1.111319 0.282790
v 0.895554 -0.151560 0.348133
v 0.895554 1.111319 0.348133
v 0.737802 -0.151560 0.282790
v 0.737802 1.111319 0.282790
v 0.672459 -0.151560 0.125037
v 0.672459 1.111319 0.125037
v 0.737802 -0.151560 -0.032715
v 0.737802 1.111319 -0.032715
v 0.895555 1.040294 -0.597317
v 0.895555 4.831876 0.115086
v 1.368804 1.130640 -0.348212
v 0.902591 4.831876 0.118001
v 1.617909 1.040294 0.125037
v 0.905506 4.831876 0.125037
v 1.368804 1.130640 0.598286
v 0.902591 4.831876 0.132074
v 0.895554 1.040294 0.847392
v 0.895555 4.831876 0.134988
v 0.422305 1.130640 0.598286
v 0.888518 4.831876 0.132074
v 0.173200 1.040294 0.125037
v 0.885603 4.831876 0.125037
v 0.422305 1.130640 -0.348212
v 0.888518 4.831876 0.118001
v 0.895555 1.657167 -0.488163
v 0.895555 2.274039 -0.379008
v 0.895555 2.890912 -0.269854
v 0.895555 3.507785 -0.160699
v 0.895555 4.124657 -0.051545
v 1.011242 4.215003 0.009350
v 1.082754 3.598131 -0.062162
v 1.154266 2.981258 -0.133675
v 1.225779 2.364386 -0.205187
v 1.297291 1.747513 -0.276699
v 1.072136 4.124657 0.125037
v 1.181291 3.507785 0.125037
v 1.290445 2.890912 0.125037
v 1.399600 2.274039 0.125037
v 1.508754 1.657167 0.125037
v 1.011242 4.215003 0.240724
v 1.082754 3.598131 0.312237
v 1.154266 2.981258 0.383749
v 1.225779 2.364386 0.455262
v 1.297291 1.747513 0.526774
v 0.895555 4.124657 0.301619
v 0.895555 3.507785 0.410774
v 0.895554 2.890912 0.519928
v 0.895554 2.274039 0.629083
v 0.895554 1.657167 0.738237
v 0.779867 4.215003 0.240724
v 0.708355 3.598131 0.312237
v 0.636843 2.981258 0.383749
v 0.565330 2.364386 0.455261
v 0.493818 1.747513 0.526774
v 0.718973 4.124657 0.125037
v 0.609818 3.507785 0.125037
v 0.500664 2.890912 0.125037
v 0.391509 2.274039 0.125037
v 0.282355 1.657167 0.125037
v 0.779867 4.215003 0.009350
v 0.708355 3.598131 -0.062162
v 0.636843 2.981258 -0.133675
v 0.565330 2.364386 -0.205187
v 0.493818 1.747513 -0.276699
v 0.895555 4.095490 -0.124679
v 1.059156 4.185836 -0.038564
v 1.145271 4.095490 0.125037
v 1.059156 4.185836 0.288638
v 0.895555 4.095490 0.374754
v 0.731953 4.185836 0.288638
v 0.645838 4.095490 0.125037
v 0.731953 4.185836 -0.038564
v 0.895555 3.478617 -0.283401
v 1.163142 3.568964 -0.142550
v 1.303993 3.478617 0.125037
v 1.163142 3.568964 0.392624
v 0.895555 3.478617 0.533475
v 0.627967 3.568964 0.392624
v 0.487117 3.478617 0.125037
v 0.627967 3.568964 -0.142550
v 0.895555 2.861744 -0.430960
v 1.259815 2.952091 -0.239223
v 1.451552 2.861744 0.125037
v 1.259815 2.952091 0.489298
v 0.895554 2.861744 0.681035
v 0.531294 2.952091 0.489298
v 0.339557 2.861744 0.125037
v 0.531294 2.952091 -0.239223
v 0.895555 2.244872 -0.586045
v 1.361419 2.335218 -0.340827
v 1.606637 2.244872 0.125037
v 1.361419 2.335218 0.590901
v 0.895554 2.244872 0.836120
v 0.429690 2.335218 0.590901
v 0.184472 2.244872 0.125037
v 0.429690 2.335218 -0.340827
v 0.895555 1.627999 -0.742763
v 1.464092 1.718346 -0.443500
v 1.763355 1.627999 0.125037
v 1.464092 1.718346 0.693575
v 0.895554 1.627999 0.992838
v 0.327017 1.718346 0.693575
v 0.027754 1.627999 0.125037
v 0.327017 1.718346 -0.443500
v 1.557574 1.101473 -0.536983
v 1.906044 1.011127 0.125037
v 1.557574 1.101473 0.787057
v 0.895554 1.011127 1.135526
v 0.233535 1.101473 0.787057
v -0.114934 1.011127 0.125037
v 0.233535 1.101473 -0.536983
v 0.895555 1.011127 -0.885452
vn 0.3827 0.0000 -0.9239
vn 0.9239 0.0000 -0.3827
vn 0.9239 0.0000 0.3827
vn 0.3827 0.0000 0.9239
vn -0.3827 0.0000 0.9239
vn -0.9239 0.0000 0.3827
vn 0.0000 1.0000 0.0000
vn -0.3827 0.0000 -0.9239
vn -0.9239 0.0000 -0.3827
vn 0.0000 -1.0000 0.0000
vn 0.3130 0.2940 -0.9031
vn 0.9031 0.2940 -0.3130
vn 0.9031 0.2940 0.3130
vn 0.3130 0.2940 0.9031
vn -0.3130 0.2940 0.9031
vn -0.9031 0.2940 0.3130
vn -0.3130 0.2940 -0.9031
vn -0.9031 0.2940 -0.3130
vn 0.3527 0.4902 -0.7971
vn 0.3558 0.4585 -0.8144
vn 0.3613 0.4099 -0.8375
vn 0.3632 0.3596 -0.8595
vn 0.3563 0.3156 -0.8794
vn 0.7971 0.4902 -0.3527
vn 0.8144 0.4585 -0.3558
vn 0.8375 0.4099 -0.3613
vn 0.8595 0.3596 -0.3632
vn 0.8794 0.3156 -0.3563
vn 0.7971 0.4902 0.3527
vn 0.8144 0.4585 0.3558
vn 0.8375 0.4099 0.3613
vn 0.8595 0.3596 0.3632
vn 0.8794 0.3156 0.3563
vn 0.3527 0.4902 0.7971
vn 0.3558 0.4585 0.8144
vn 0.3613 0.4099 0.8375
vn 0.3632 0.3596 0.8595
vn 0.3563 0.3156 0.8794
vn -0.3527 0.4902 0.7971
vn -0.3558 0.4585 0.8144
vn -0.3613 0.4099 0.8375
vn -0.3632 0.3596 0.8595
vn -0.3563 0.3156 0.8794
vn -0.7971 0.4902 0.3527
vn -0.8144 0.4585 0.3558
vn -0.8375 0.4099 0.3613
vn -0.8595 0.3596 0.3632
vn -0.8794 0.3156 0.3563
vn -0.3527 0.4902 -0.7971
vn -0.3558 0.4585 -0.8144
vn -0.3613 0.4099 -0.8375
vn -0.3632 0.3596 -0.8595
vn -0.3563 0.3156 -0.8794
vn -0.7971 0.4902 -0.3527
vn -0.8144 0.4585 -0.3558
vn -0.8375 0.4099 -0.3613
vn -0.8595 0.3596 -0.3632
vn -0.8794 0.3156 -0.3563
vn 0.2177 -0.7217 0.6571
vn -0.6571 -0.7217 -0.2177
vn -0.6571 -0.7217 0.2177
vn 0.2177 -0.7217 -0.6571
vn -0.2177 -0.7217 -0.6571
vn 0.6571 -0.7217 0.2177
vn -0.2177 -0.7217 0.6571
vn 0.6571 -0.7217 -0.2177
vn 0.1649 -0.8628 0.4779
vn -0.4779 -0.8628 -0.1648
vn -0.4779 -0.8628 0.1648
vn 0.1649 -0.8628 -0.4779
vn -0.1649 -0.8628 -0.4779
vn 0.4779 -0.8628 0.1648
vn -0.1649 -0.8628 0.4779
vn 0.4779 -0.8628 -0.1648
vn 0.1226 -0.9183 0.3764
vn -0.3764 -0.9183 -0.1226
vn -0.3764 -0.9183 0.1226
vn 0.1226 -0.9183 -0.3764
vn -0.1226 -0.9183 -0.3764
vn 0.3764 -0.9183 0.1226
vn -0.1226 -0.9183 0.3764
vn 0.3764 -0.9183 -0.1226
vn 0.0996 -0.9477 0.3034
vn -0.3034 -0.9477 -0.0996
vn -0.3034 -0.9477 0.0996
vn 0.0996 -0.9477 -0.3034
vn -0.0996 -0.9477 -0.3034
vn 0.3034 -0.9477 0.0996
vn -0.0996 -0.9477 0.3034
vn 0.3034 -0.9477 -0.0996
vn 0.0839 -0.9640 0.2525
vn -0.2525 -0.9640 -0.0839
vn -0.2525 -0.9640 0.0839
vn 0.0839 -0.9640 -0.2525
vn -0.0839 -0.9640 -0.2525
vn 0.2525 -0.9640 0.0839
vn -0.0839 -0.9640 0.2525
vn 0.2525 -0.9640 -0.0839
vn 0.0698 -0.9730 0.2202
vn -0.2202 -0.9730 -0.0698
vn -0.2202 -0.9730 0.0698
vn 0.0698 -0.9730 -0.2202
vn -0.0698 -0.9730 -0.2202
vn 0.2202 -0.9730 0.0698
vn -0.0698 -0.9730 0.2202
vn 0.2202 -0.9730 -0.0698
vn 0.3648 0.3019 -0.8808
vn 0.8808 0.3019 -0.3648
vn 0.8808 0.3019 0.3648
vn 0.3648 0.3019 0.8808
vn -0.3648 0.3019 0.8808
vn -0.8808 0.3019 0.3648
vn -0.3648 0.3019 -0.8808
vn -0.8808 0.3019 -0.3648
vn 0.0000 -0.9401 0.3410
vn -0.3410 -0.9401 0.0000
vn 0.0000 -0.9401 -0.3410
vn 0.3410 -0.9401 0.0000
vn 0.0000 1.0000 0.0002
vn 0.0000 1.0000 -0.0001
vn 0.3287 0.4639 -0.8227
vn 0.3253 0.4306 -0.8419
vn 0.3228 0.3813 -0.8663
vn 0.3104 0.3295 -0.8917
vn 0.2671 0.2796 -0.9222
vn 0.8227 0.4639 -0.3287
vn 0.8419 0.4306 -0.3253
vn 0.8663 0.3813 -0.3228
vn 0.8917 0.3295 -0.3104
vn 0.9222 0.2796 -0.2671
vn 0.8227 0.4639 0.3287
vn 0.8419 0.4306 0.3253
vn 0.8663 0.3813 0.3228
vn 0.8917 0.3295 0.3104
vn 0.9222 0.2796 0.2671
vn 0.3287 0.4639 0.8227
vn 0.3253 0.4306 0.8419
vn 0.3228 0.3813 0.8663
vn 0.3104 0.3295 0.8917
vn 0.2671 0.2796 0.9222
vn -0.3287 0.4639 0.8227
vn -0.3253 0.4306 0.8419
vn -0.3228 0.3813 0.8663
vn -0.3104 0.3295 0.8917
vn -0.2671 0.2796 0.9222
vn -0.8227 0.4639 0.3287
vn -0.8419 0.4306 0.3253
vn -0.8663 0.3813 0.3228
vn -0.8917 0.3295 0.3104
vn -0.9222 0.2796 0.2671
vn -0.3287 0.4639 -0.8227
vn -0.3253 0.4306 -0.8419
vn -0.3228 0.3813 -0.8663
vn -0.3104 0.3295 -0.8917
vn -0.2671 0.2796 -0.9222
vn -0.8227 0.4639 -0.3287
vn -0.8419 0.4306 -0.3253
vn -0.8663 0.3813 -0.3228
vn -0.8917 0.3295 -0.3104
vn -0.9222 0.2796 -0.2671
vn 0.3030 -0.8852 0.3530
vn -0.3530 -0.8852 -0.3030
vn -0.3530 -0.8852 0.3030
vn 0.3030 -0.8852 -0.3530
vn -0.3030 -0.8852 -0.3530
vn 0.3530 -0.8852 0.3030
vn -0.3030 -0.8852 0.3530
vn 0.3530 -0.8852 -0.3030
vn 0.2025 -0.9527 0.2265
vn -0.2265 -0.9527 -0.2025
vn -0.2265 -0.9527 0.2025
vn 0.2025 -0.9527 -0.2265
vn -0.2025 -0.9527 -0.2265
vn 0.2265 -0.9527 0.2025
vn -0.2025 -0.9527 0.2265
vn 0.2265 -0.9527 -0.2025
vn 0.1486 -0.9731 0.1762
vn -0.1762 -0.9731 -0.1486
vn -0.1762 -0.9731 0.1486
vn 0.1486 -0.9731 -0.1762
vn -0.1486 -0.9731 -0.1762
vn 0.1762 -0.9731 0.1486
vn -0.1486 -0.9731 0.1762
vn 0.1762 -0.9731 -0.1486
vn 0.1178 -0.9833 0.1385
vn -0.1385 -0.9833 -0.1178
vn -0.1385 -0.9833 0.1178
vn 0.1178 -0.9833 -0.1385
vn -0.1178 -0.9833 -0.1385
vn 0.1385 -0.9833 0.1178
vn -0.1178 -0.9833 0.1385
vn 0.1385 -0.9833 -0.1178
vn 0.0975 -0.9888 0.1133
vn -0.1133 -0.9888 -0.0975
vn -0.1133 -0.9888 0.0975
vn 0.0975 -0.9888 -0.1133
vn -0.0975 -0.9888 -0.1133
vn 0.1133 -0.9888 0.0975
vn -0.0975 -0.9888 0.1133
vn 0.1133 -0.9888 -0.0975
vn 0.0825 -0.9915 0.1004
vn -0.1004 -0.9915 -0.0825
vn -0.1004 -0.9915 0.0825
vn 0.0825 -0.9915 -0.1004
vn -0.0825 -0.9915 -0.1004
vn 0.1004 -0.9915 0.0825
vn -0.0825 -0.9915 0.1004
vn 0.1004 -0.9915 -0.0825
vn -0.1648 -0.8628 -0.4779
vn 0.1648 -0.8628 0.4779
vn 0.1648 -0.8628 -0.4779
vn -0.1648 -0.8628 0.4779
usemtl Material.008
s off
f 106//1 107//1 105//1
f 108//2 109//2 107//2
f 110//3 111//3 109//3
f 112//4 113//4 111//4
f 114//5 115//5 113//5
f 116//6 117//6 115//6
f 118//7 112//7 110//7
f 120//8 105//8 119//8
f 118//9 119//9 117//9
f 111//10 117//10 119//10
f 106//1 108//1 107//1
f 108//2 110//2 109//2
f 110//3 112//3 111//3
f 112//4 114//4 113//4
f 114//5 116//5 115//5
f 116//6 118//6 117//6
f 110//7 108//7 106//7
f 106//7 120//7 118//7
f 118//7 116//7 114//7
f 114//7 112//7 118//7
f 110//7 106//7 118//7
f 120//8 106//8 105//8
f 118//9 120//9 119//9
f 119//10 105//10 107//10
f 107//10 109//10 111//10
f 111//10 113//10 115//10
f 115//10 117//10 111//10
f 119//10 107//10 111//10
usemtl Material.009
f 122//11 178//11 177//11
f 178//12 126//12 179//12
f 126//13 180//13 179//13
f 180//14 130//14 181//14
f 130//15 182//15 181//15
f 182//16 134//16 183//16
f 184//17 122//17 177//17
f 134//18 184//18 183//18
f 127//10 131//10 135//10
f 132//7 130//7 126//7
f 137//19 217//19 224//19
f 138//20 210//20 209//20
f 139//21 202//21 201//21
f 140//22 194//22 193//22
f 141//23 186//23 185//23
f 217//24 151//24 218//24
f 210//25 150//25 211//25
f 202//26 149//26 203//26
f 194//27 148//27 195//27
f 186//28 147//28 187//28
f 151//29 219//29 218//29
f 150//30 212//30 211//30
f 149//31 204//31 203//31
f 148//32 196//32 195//32
f 147//33 188//33 187//33
f 219//34 161//34 220//34
f 212//35 160//35 213//35
f 204//36 159//36 205//36
f 196//37 158//37 197//37
f 188//38 157//38 189//38
f 161//39 221//39 220//39
f 160//40 214//40 213//40
f 159//41 206//41 205//41
f 158//42 198//42 197//42
f 157//43 190//43 189//43
f 221//44 171//44 222//44
f 214//45 170//45 215//45
f 206//46 169//46 207//46
f 198//47 168//47 199//47
f 190//48 167//48 191//48
f 223//49 137//49 224//49
f 216//50 138//50 209//50
f 208//51 139//51 201//51
f 200//52 140//52 193//52
f 192//53 141//53 185//53
f 171//54 223//54 222//54
f 170//55 216//55 215//55
f 169//56 208//56 207//56
f 168//57 200//57 199//57
f 167//58 192//58 191//58
f 141//59 178//59 142//59
f 178//60 147//60 142//60
f 147//61 180//61 152//61
f 180//62 157//62 152//62
f 157//63 182//63 162//63
f 182//64 167//64 162//64
f 184//65 141//65 172//65
f 167//66 184//66 172//66
f 140//67 186//67 143//67
f 186//68 148//68 143//68
f 148//69 188//69 153//69
f 188//70 158//70 153//70
f 158//71 190//71 163//71
f 190//72 168//72 163//72
f 192//73 140//73 173//73
f 168//74 192//74 173//74
f 139//75 194//75 144//75
f 194//76 149//76 144//76
f 149//77 196//77 154//77
f 196//78 159//78 154//78
f 159//79 198//79 164//79
f 198//80 169//80 164//80
f 200//81 139//81 174//81
f 169//82 200//82 174//82
f 138//83 202//83 145//83
f 202//84 150//84 145//84
f 150//85 204//85 155//85
f 204//86 160//86 155//86
f 160//87 206//87 165//87
f 206//88 170//88 165//88
f 208//89 138//89 175//89
f 170//90 208//90 175//90
f 137//91 210//91 146//91
f 210//92 151//92 146//92
f 151//93 212//93 156//93
f 212//94 161//94 156//94
f 161//95 214//95 166//95
f 214//96 171//96 166//96
f 216//97 137//97 176//97
f 171//98 216//98 176//98
f 121//99 217//99 123//99
f 217//100 125//100 123//100
f 125//101 219//101 127//101
f 219//102 129//102 127//102
f 129//103 221//103 131//103
f 221//104 133//104 131//104
f 223//105 121//105 135//105
f 133//106 223//106 135//106
f 122//107 124//107 178//107
f 178//108 124//108 126//108
f 126//109 128//109 180//109
f 180//110 128//110 130//110
f 130//111 132//111 182//111
f 182//112 132//112 134//112
f 184//113 136//113 122//113
f 134//114 136//114 184//114
f 135//115 121//115 123//115
f 123//116 125//116 127//116
f 127//117 129//117 131//117
f 131//118 133//118 135//118
f 135//10 123//10 127//10
f 126//119 124//119 122//119
f 122//7 136//7 126//7
f 134//7 132//7 126//7
f 130//120 128//120 126//120
f 126//7 136//7 134//7
f 137//121 146//121 217//121
f 138//122 145//122 210//122
f 139//123 144//123 202//123
f 140//124 143//124 194//124
f 141//125 142//125 186//125
f 217//126 146//126 151//126
f 210//127 145//127 150//127
f 202//128 144//128 149//128
f 194//129 143//129 148//129
f 186//130 142//130 147//130
f 151//131 156//131 219//131
f 150//132 155//132 212//132
f 149//133 154//133 204//133
f 148//134 153//134 196//134
f 147//135 152//135 188//135
f 219//136 156//136 161//136
f 212//137 155//137 160//137
f 204//138 154//138 159//138
f 196//139 153//139 158//139
f 188//140 152//140 157//140
f 161//141 166//141 221//141
f 160//142 165//142 214//142
f 159//143 164//143 206//143
f 158//144 163//144 198//144
f 157//145 162//145 190//145
f 221//146 166//146 171//146
f 214//147 165//147 170//147
f 206//148 164//148 169//148
f 198//149 163//149 168//149
f 190//150 162//150 167//150
f 223//151 176//151 137//151
f 216//152 175//152 138//152
f 208//153 174//153 139//153
f 200//154 173//154 140//154
f 192//155 172//155 141//155
f 171//156 176//156 223//156
f 170//157 175//157 216//157
f 169//158 174//158 208//158
f 168//159 173//159 200//159
f 167//160 172//160 192//160
f 141//161 177//161 178//161
f 178//162 179//162 147//162
f 147//163 179//163 180//163
f 180//164 181//164 157//164
f 157//165 181//165 182//165
f 182//166 183//166 167//166
f 184//167 177//167 141//167
f 167//168 183//168 184//168
f 140//169 185//169 186//169
f 186//170 187//170 148//170
f 148//171 187//171 188//171
f 188//172 189//172 158//172
f 158//173 189//173 190//173
f 190//174 191//174 168//174
f 192//175 185//175 140//175
f 168//176 191//176 192//176
f 139//177 193//177 194//177
f 194//178 195//178 149//178
f 149//179 195//179 196//179
f 196//180 197//180 159//180
f 159//181 197//181 198//181
f 198//182 199//182 169//182
f 200//183 193//183 139//183
f 169//184 199//184 200//184
f 138//185 201//185 202//185
f 202//186 203//186 150//186
f 150//187 203//187 204//187
f 204//188 205//188 160//188
f 160//189 205//189 206//189
f 206//190 207//190 170//190
f 208//191 201//191 138//191
f 170//192 207//192 208//192
f 137//193 209//193 210//193
f 210//194 211//194 151//194
f 151//195 211//195 212//195
f 212//196 213//196 161//196
f 161//197 213//197 214//197
f 214//198 215//198 171//198
f 216//199 209//199 137//199
f 171//200 215//200 216//200
f 121//201 224//201 217//201
f 217//202 218//202 125//202
f 125//203 218//203 219//203
f 219//204 220//204 129//204
f 129//205 220//205 221//205
f 221//206 222//206 133//206
f 223//207 224//207 121//207
f 133//208 222//208 223//208
usemtl snow
f 6//102 96//102 98//102
f 104//99 8//99 102//99
f 9//97 88//97 49//97
f 64//95 11//95 59//95
f 74//93 13//93 69//93
f 88//91 15//91 79//91
f 100//101 6//101 98//101
f 17//89 87//89 50//89
f 2//105 104//105 90//105
f 96//103 4//103 94//103
f 65//87 19//87 60//87
f 87//83 23//83 80//83
f 66//79 27//79 61//79
f 86//75 31//75 81//75
f 67//209 35//209 62//209
f 84//59 47//59 83//59
f 78//61 45//61 73//61
f 68//63 43//63 63//63
f 41//65 84//65 53//65
f 85//210 39//210 82//210
f 2//49 88//49 1//49
f 17//51 86//51 24//51
f 33//53 84//53 40//53
f 55//55 9//55 10//55
f 57//57 25//57 26//57
f 64//39 4//39 5//39
f 66//41 19//41 20//41
f 68//43 35//43 36//43
f 11//45 55//45 10//45
f 27//47 57//47 26//47
f 74//29 6//29 7//29
f 76//31 21//31 22//31
f 78//33 37//33 38//33
f 13//35 65//35 12//35
f 29//37 67//37 28//37
f 88//19 8//19 1//19
f 86//21 23//21 24//21
f 84//23 39//23 40//23
f 15//25 75//25 14//25
f 31//27 77//27 30//27
f 19//88 55//88 60//88
f 23//84 75//84 80//84
f 27//80 56//80 61//80
f 31//76 76//76 81//76
f 35//72 57//72 62//72
f 103//11 47//11 48//11
f 99//13 45//13 46//13
f 95//15 43//15 44//15
f 41//17 103//17 48//17
f 98//10 94//10 102//10
f 37//211 67//211 72//211
f 39//68 77//68 82//68
f 58//58 33//58 34//58
f 35//48 58//48 34//48
f 37//38 68//38 36//38
f 39//28 78//28 38//28
f 77//69 37//69 72//69
f 93//7 95//7 99//7
f 57//74 33//74 52//74
f 58//66 41//66 53//66
f 56//56 17//56 18//56
f 19//46 56//46 18//46
f 21//36 66//36 20//36
f 23//26 76//26 22//26
f 33//212 85//212 52//212
f 91//18 41//18 42//18
f 29//78 66//78 71//78
f 43//64 58//64 63//64
f 54//54 2//54 3//54
f 4//44 54//44 3//44
f 6//34 64//34 5//34
f 8//24 74//24 7//24
f 76//77 29//77 71//77
f 43//16 91//16 42//16
f 56//82 25//82 51//82
f 45//62 68//62 73//62
f 25//52 85//52 32//52
f 67//42 27//42 28//42
f 77//32 29//32 30//32
f 85//22 31//22 32//22
f 25//81 86//81 51//81
f 45//14 95//14 44//14
f 21//86 65//86 70//86
f 47//60 78//60 83//60
f 9//50 87//50 16//50
f 65//40 11//40 12//40
f 75//30 13//30 14//30
f 87//20 15//20 16//20
f 75//85 21//85 70//85
f 47//12 99//12 46//12
f 92//106 2//106 90//106
f 8//100 100//100 102//100
f 54//98 9//98 49//98
f 11//96 54//96 59//96
f 13//94 64//94 69//94
f 15//92 74//92 79//92
f 4//104 92//104 94//104
f 55//90 17//90 50//90
f 6//204 5//204 96//204
f 104//201 1//201 8//201
f 9//199 16//199 88//199
f 64//197 12//197 11//197
f 74//195 14//195 13//195
f 88//193 16//193 15//193
f 100//203 7//203 6//203
f 17//191 24//191 87//191
f 2//207 1//207 104//207
f 96//205 5//205 4//205
f 65//189 20//189 19//189
f 87//185 24//185 23//185
f 66//181 28//181 27//181
f 86//177 32//177 31//177
f 67//173 36//173 35//173
f 84//161 48//161 47//161
f 78//163 46//163 45//163
f 68//165 44//165 43//165
f 41//167 48//167 84//167
f 85//169 40//169 39//169
f 2//151 49//151 88//151
f 17//153 51//153 86//153
f 33//155 53//155 84//155
f 55//157 50//157 9//157
f 57//159 52//159 25//159
f 64//141 59//141 4//141
f 66//143 61//143 19//143
f 68//145 63//145 35//145
f 11//147 60//147 55//147
f 27//149 62//149 57//149
f 74//131 69//131 6//131
f 76//133 71//133 21//133
f 78//135 73//135 37//135
f 13//137 70//137 65//137
f 29//139 72//139 67//139
f 88//121 79//121 8//121
f 86//123 81//123 23//123
f 84//125 83//125 39//125
f 15//127 80//127 75//127
f 31//129 82//129 77//129
f 19//190 18//190 55//190
f 23//186 22//186 75//186
f 27//182 26//182 56//182
f 31//178 30//178 76//178
f 35//174 34//174 57//174
f 103//107 101//107 47//107
f 99//109 97//109 45//109
f 95//111 93//111 43//111
f 41//113 89//113 103//113
f 90//115 104//115 102//115
f 102//116 100//116 98//116
f 98//117 96//117 94//117
f 94//118 92//118 90//118
f 90//10 102//10 94//10
f 37//172 36//172 67//172
f 39//170 38//170 77//170
f 58//160 53//160 33//160
f 35//150 63//150 58//150
f 37//140 73//140 68//140
f 39//130 83//130 78//130
f 77//171 38//171 37//171
f 99//7 101//7 103//7
f 103//7 89//7 99//7
f 91//7 93//7 99//7
f 95//7 97//7 99//7
f 99//7 89//7 91//7
f 57//176 34//176 33//176
f 58//168 42//168 41//168
f 56//158 51//158 17//158
f 19//148 61//148 56//148
f 21//138 71//138 66//138
f 23//128 81//128 76//128
f 33//175 40//175 85//175
f 91//114 89//114 41//114
f 29//180 28//180 66//180
f 43//166 42//166 58//166
f 54//156 49//156 2//156
f 4//146 59//146 54//146
f 6//136 69//136 64//136
f 8//126 79//126 74//126
f 76//179 30//179 29//179
f 43//112 93//112 91//112
f 56//184 26//184 25//184
f 45//164 44//164 68//164
f 25//154 52//154 85//154
f 67//144 62//144 27//144
f 77//134 72//134 29//134
f 85//124 82//124 31//124
f 25//183 32//183 86//183
f 45//110 97//110 95//110
f 21//188 20//188 65//188
f 47//162 46//162 78//162
f 9//152 50//152 87//152
f 65//142 60//142 11//142
f 75//132 70//132 13//132
f 87//122 80//122 15//122
f 75//187 22//187 21//187
f 47//108 101//108 99//108
f 92//208 3//208 2//208
f 8//202 7//202 100//202
f 54//200 10//200 9//200
f 11//198 10//198 54//198
f 13//196 12//196 64//196
f 15//194 14//194 74//194
f 4//206 3//206 92//206
f 55//192 18//192 17//192
